/* XPM */
static char *_676e5ef3ebd4104b43a35f0c9fa0c4fGnxfSYQPdAwRr3oC[] = {
/* columns rows colors chars-per-pixel */
"64 64 152 2 ",
"   c None",
".  c #010101",
"X  c #080607",
"o  c #060608",
"O  c #06090A",
"+  c #090909",
"@  c #1D140C",
"#  c #1F1D0A",
"$  c #1F1710",
"%  c #1F1811",
"&  c gray12",
"*  c #23170C",
"=  c #211C0C",
"-  c #221C11",
";  c #1F200A",
":  c #20220A",
">  c #382713",
",  c #3A2A13",
"<  c #3B3614",
"1  c #3E3A13",
"2  c #3C3918",
"3  c #1F1F20",
"4  c #222222",
"5  c #2A2A2A",
"6  c #3D3926",
"7  c #3D3D37",
"8  c #3D3D38",
"9  c #A37F41",
"0  c #A2803F",
"q  c #B88C37",
"w  c #B98B3B",
"e  c #BE9535",
"r  c #BDAB39",
"t  c #C09535",
"y  c #D79D36",
"u  c #D99E36",
"i  c #D79D38",
"p  c #D99D39",
"a  c #DCAF26",
"s  c #DBA62D",
"d  c #DCAA2D",
"f  c #C2BF28",
"g  c #D6BD2D",
"h  c #D8BD2E",
"j  c #D7A034",
"k  c #DAA532",
"l  c #DBA830",
"z  c #DAA038",
"x  c #D2B633",
"c  c #D7BC30",
"v  c #D7D917",
"b  c #D9D917",
"n  c #DDD71C",
"m  c #D7D918",
"M  c #DAD819",
"N  c #F5DE16",
"B  c #F8DD16",
"V  c #F6D71F",
"C  c #F9D71E",
"Z  c #F7DA1C",
"A  c #FAD91E",
"S  c #F9EE0D",
"D  c #F9F406",
"F  c #F7F901",
"G  c #F8F902",
"H  c #F7F00C",
"J  c #F9F308",
"K  c #F9EF14",
"L  c #F4E119",
"P  c #F7F014",
"I  c #DBC12B",
"U  c #DAC132",
"Y  c #DBDA3A",
"T  c #EECE26",
"R  c #ECC72E",
"E  c #F4CF26",
"W  c #F5CF29",
"Q  c #F4D124",
"!  c #F9D720",
"~  c #F6D920",
"^  c #F9D820",
"/  c #ECC630",
"(  c #F4DE3C",
")  c #F6F725",
"_  c #F6F62C",
"`  c #F8F22B",
"'  c #F5F82B",
"]  c #F8F92C",
"[  c #F3E03C",
"{  c #F6F331",
"}  c #A28040",
"|  c #D7C44E",
" . c #D8C44E",
".. c #F4DB46",
"X. c #F4DC4A",
"o. c #F3E142",
"O. c #F4F547",
"+. c #F5F549",
"@. c #EEDD67",
"#. c #F3DF6B",
"$. c #FBFCAD",
"%. c #FBFAB3",
"&. c #F7F5BA",
"*. c #FAF7B9",
"=. c #CACAC9",
"-. c #DFDFDE",
";. c #E1DFC4",
":. c #FCFDCF",
">. c #E0E0DE",
",. c #FCFDD1",
"<. c #FDFDD0",
"1. c #FDFCD3",
"2. c #FCFDD2",
"3. c #FCF9D7",
"4. c #FCFAD7",
"5. c #FCFCD0",
"6. c #FCF9D9",
"7. c #FDF9D9",
"8. c #FCFAD8",
"9. c #FCFAD9",
"0. c #FDFBD9",
"q. c #FEFBD9",
"w. c #FCF9DA",
"e. c #FDF9DA",
"r. c #FDF9DB",
"t. c #FCFADA",
"y. c #FCFADB",
"u. c #FEFBDA",
"i. c #FDFCD9",
"p. c #FDF9DC",
"a. c #FCF9D9",
"s. c #DFE0E0",
"d. c gray88",
"f. c #E1E1E0",
"g. c #E1E1E1",
"h. c #E2E2E2",
"j. c #E1E1E0",
"k. c #FBFAE0",
"l. c #FCFAE0",
"z. c #FEFEF8",
"x. c #FFFEFD",
"c. c #FEFFFD",
"v. c #FFFFFD",
"b. c #FFFDFE",
"n. c #FFFEFE",
"m. c #FEFFFE",
"M. c #FFFFFE",
"N. c #FEFEFF",
"B. c #FFFEFF",
"V. c #FEFFFF",
"C. c white",
"Z. c #FEFFFE",
/* pixels */
"                                                . . . . . . . . . . . . . . . .                                                 ",
"                                                . . . . . . . . . . . . . . . .                                                 ",
"                                                . . . . . . . . . . . . . . . .                                                 ",
"                                                4 4 4 4 4 4 4 4 4 4 4 4 4 4 4 4                                                 ",
"                                + o o o o o . 4 =.>.>.>.>.>.>.>.>.>.>.>.>.>.f.=.4 . . . o o . o                                 ",
"                                o . . . . . . 4 f.v.v.v.v.v.v.v.v.v.v.v.v.v.v.>.4 . . . . . . .                                 ",
"                                . . . . . . . - f.v.v.v.v.v.v.v.v.v.v.v.v.v.v.s.3 . . . . . . .                                 ",
"                                4 4 4 4 4 4 & 7 ;.8.8.8.8.8.8.8.8.8.8.8.8.8.8.;.6 # = = @ @ @ -                                 ",
"                        + + + 5 =.f.f.f.>.>.f.;.@.X.X.....X.X.X.X.X.X.X.X.X.X...U g g x e w w 9 - . o o                         ",
"                        + o o 4 f.v.v.v.v.v.v.8...C C V V V V V V V V C C C C C C Z Z Q d p z w @ . . o                         ",
"                        + o o 4 f.v.v.v.v.v.v.8...C C V V V V V V V V C C C C C C C C E s u u w @ . . o                         ",
"                        + o . 4 f.v.v.z.l.4.8.*.[ N N ~ ( X...X.....X...~ N B B V C ^ Q s y z w @ . . o                         ",
"                        o . . 4 -.v.v.k.#...X.( K J J ` %.p.8.8.8.8.p.%.` G J S B V ! Q s y u w @ . . o                         ",
"                        o . . 4 -.v.v.4...Z C B J G G { <.v.v.v.v.v.v.<._ G G J N V ! E s i p w @ . . o                         ",
"                        . . . 3 -.v.v.8.X.Z Z N J F F _ :.v.v.v.v.v.v.<.] G G G N Z C E s u p w @ . . .                         ",
"                        4 4 & 7 ;.i.8.*.[ N N L ` _ _ +.%.<.<.<.4.8.8.&.Y b M n N N B V a s d t > @ @ $                         ",
"                o o . 4 =.>.-.;.@...X.[ P J G ` $.<.<.%.O._ _ { o.X.X. .2 = # 1 n G J S V E Q / t w w 9 $ . o o                 ",
"                . . . 4 f.v.v.8.X.C C N J G F _ <.v.v.<._ F F G N V C g # . . # M G G G N ~ ^ W l p z w @ . . o                 ",
"                . . . 4 >.v.v.8...C C B J G F _ <.v.v.<._ F F G N C C g = . . : m G G G N ~ C E s u y w @ . . o                 ",
"                . . . 4 >.v.v.3.X.V C N J G F _ :.v.v.<._ F G G N ! ^ g = . . : v G G G N V C E s u u w @ . . .                 ",
"                . . . 4 >.v.v.8.X.V C N J G F _ <.v.v.<._ F G J N C C g = . . : v G G J N V ! E s u u w @ . . .                 ",
"                . . . 4 >.v.v.8.X.V ! B J G G _ <.v.v.<._ F G J N C C h = . . : m G G G N V ! E s u u w @ . . o                 ",
"                . . . 4 >.v.v.8.X.V ! B J G F _ <.v.v.<._ F G J N C C h = . . : m G G G N V ! E s u u w @ . . o                 ",
"                . . . 4 >.v.v.8.X.V ! B J G F _ 5.v.v.5._ F G J N C C h = . . : m G G G N V ! E s u u w @ . . o                 ",
"                . . . 4 >.v.v.8.X.V ! B J G F _ 5.v.v.5._ F G J N C C h = . . : m G G G N V ! E s u u w @ . . o                 ",
"                . . . 4 >.v.v.8.X.V ! B J G F _ 5.v.v.5._ F G J N C C h = . . : m G G G N V ! E s u u w @ . . o                 ",
"                . . . 4 >.v.v.8.X.V ! B J G F _ 5.v.v.5._ F G J N C C h = . . : m G G G N V ! E s u u w @ . . o                 ",
"                . . . 4 >.v.v.8.X.V ! B J G F _ 5.v.v.5._ F G J N C C h = . . : m G G G N V ! E s u u w @ . . o                 ",
"                . . . 4 >.v.v.8.X.! ! B J G F _ <.v.v.5._ F G J N C C h = . . : m G G G N V ! E s u u w @ . . .                 ",
"                . . . 4 >.v.v.8.X.V ! B J G F _ <.v.v.5._ F G J N C C h = . . : m G G G N V ! E s u u w @ . . .                 ",
"                . . . 4 >.v.v.8.X.V ! B J G F _ 5.v.v.5._ F G J N C C h = . . : m G G G N V ! E s u u w @ . . .                 ",
"                . . . 4 >.v.v.8.X.V ! B J G F _ 5.v.v.5._ F G J N C C h = . . : m G G G N V ! E s u u w @ . . o                 ",
"                . . . 4 >.v.v.8.X.V ! B J G F _ <.v.v.5._ F G J N C C h = . . : m G G G N V ! E s u u w @ . . o                 ",
"                . . . 4 >.v.v.8.X.V ! B J G F _ <.v.v.5._ F G J N C C h = . . : m G G G N V ! E s u u w @ . . o                 ",
"                . . . 4 >.v.v.8.X.V ! B J G F _ <.v.v.5._ F G J N C C h = . . : m G G G N V ! E s u u w @ . . o                 ",
"                . . . 4 >.v.v.8.X.V ! B J G F _ <.v.v.:._ F G J N C C h = . . : m G G G N V ! E s u u w @ . . o                 ",
"                . . . 4 >.v.v.8.X.V ! B J G F _ <.v.v.:.' F G G N C C h = . . : m G G G N V ! E s u u w @ . . .                 ",
"                . . . 4 >.v.v.8.X.V ! B J G F _ 5.v.v.:.' F F J N C C h = . . : m G G G N V ! E s u u w @ . . .                 ",
"                . . . 4 >.v.v.8.X.V ! B J G F _ 5.v.v.5._ F G J N C C h = . . : m G G G N V ! E s u u w @ . . .                 ",
"                . . . 4 >.v.v.8.X.V ! B J G F _ <.v.v.<.{ D J S B C C g = . . : m G G G N V ! E s u u w @ . . .                 ",
"                . . . 4 >.v.v.8.X.V ! B J G F _ <.v.v.8.o.N B B V C C g = . . : m G G G N V ! E s u u w @ . . .                 ",
"                . . . 4 >.v.v.8.X.V ! B J G F _ <.v.v.8...Z C V V C C g = . . : m G G G N V ! E s u u w @ . . .                 ",
"                . . . 4 >.v.v.8.X.V ! B J G F _ <.v.v.8.X.Z C ~ V C C g = . . : m G G G N V ! E s u u w @ . . .                 ",
"                . . . 4 >.v.v.8.X.V ! B J G F _ <.v.v.8.X.V C ~ ~ C C g = . . : v G G J N V ! E s y u w @ . . .                 ",
"                . . . 4 >.v.v.8.X.V ! B J G F _ <.v.v.8.X.V ! ~ ~ ! C g = . . : v G G G N ~ C E s y u w @ . . .                 ",
"                . . . 4 >.v.v.8.X.V ! B J G G _ <.v.v.8.X.C ! ! C C C g = . . : v G G G N V C E s u u w @ . . .                 ",
"                . . . 4 >.v.v.8.X.V ! B J G F _ <.v.v.8.X.C C V C C B g # . . # m G G G N ~ C W l p z w @ . . .                 ",
"                o . . 4 =.>.-.;...C C B J G G ) $.<.<.&.| g c g g g g r < = = 1 n G J S V E Q R t w w 9 $ . . o                 ",
"                        4 4 3 6 U C C B G G G D ) _ ] Y 2 = = = = = # < f b M n Z B B V a l l t , * = -                         ",
"                        . . . # g C C N G G G G F F G M # . . . . . . : M G G G B V V Q s y p w * . . X                         ",
"                        . . . = g C C B G G G G F F G M ; . . . . . . ; M G G J B V V Q s i i w = . o +                         ",
"                        . . . = g C C Z H J J G G G G n 1 = = = = = # 1 n J J S V Q Q E s y y w = . o O                         ",
"                        . . . = g C V V B B N N B B B V I g g g g g g I V N B ~ a s s l j y u w = . o O                         ",
"                        . . . = g C C ! C ! C C C C C V C C C C C C C C C V V E s u u y y y u w = o o O                         ",
"                        . . . = g A C C C C C C C V V V V V V V V V V V ~ V ^ Q d y j z u u z w = o o O                         ",
"                        o . . - r g g g g g g h T Q Q Q E E E E E E E E Q Q Q R t q w w w w w 9 - o o +                         ",
"                                - = = = = = = , e l l l l l l l l l l l s s l e > @ @ @ @ @ @ $                                 ",
"                                . . . . . . . @ w p p i p p p p p p p p y u p w @ . . . . . . .                                 ",
"                                . . . . . . . @ w z u u u u u u u u u u u u z w @ . . . . . . .                                 ",
"                                o . . . . . . @ 0 w w w w w w w w w w w w w w } @ . . . . . . o                                 ",
"                                                $ @ @ @ @ @ @ @ @ @ @ @ @ @ @ $                                                 ",
"                                                . . . . . . . . . . . . . . . .                                                 ",
"                                                . . . . . . . . . . . . . . . .                                                 ",
"                                                . . . . . . . . . . . . . . . .                                                 "
};
