/* XPM */
static char *_24680d03c954fa5f9b053c6124b12a4grmfOittXD4C7KXv[] = {
/* columns rows colors chars-per-pixel */
"64 64 190 2 ",
"   c #000000",
".  c #0C0302",
"X  c #0B0A0A",
"o  c #070B0B",
"O  c #140401",
"+  c #1C0603",
"@  c #1E0B03",
"#  c #100C0C",
"$  c #1E0A09",
"%  c #17191A",
"&  c #1E1F1F",
"*  c #121314",
"=  c #230700",
"-  c #280600",
";  c #230B03",
":  c #2D0A00",
">  c #210B0B",
",  c #2B0E0E",
"<  c #340B00",
"1  c #3B0C00",
"2  c #291000",
"3  c #341400",
"4  c #3B1401",
"5  c #2B1212",
"6  c #2C1D1B",
"7  c #261818",
"8  c #341313",
"9  c #3C1C1C",
"0  c #3B1414",
"q  c #3C2A05",
"w  c #1C1F20",
"e  c #1C2021",
"r  c #212021",
"t  c #3A2726",
"y  c #383737",
"u  c #460D00",
"i  c #550F00",
"p  c #471700",
"a  c #4C1C00",
"s  c #561300",
"d  c #5B1300",
"f  c #521D00",
"g  c #451A1A",
"h  c #4D1D1D",
"j  c #650F00",
"k  c #651200",
"l  c #6A1400",
"z  c #651A00",
"x  c #6C1C01",
"c  c #621A0B",
"v  c #751600",
"b  c #7C1700",
"n  c #751A00",
"m  c #7E1B01",
"M  c #761F0B",
"N  c #402B05",
"B  c #52230B",
"V  c #582E18",
"C  c #4C3A08",
"Z  c #652C01",
"A  c #712000",
"S  c #782000",
"D  c #752B02",
"F  c #6A3303",
"G  c #6A340B",
"H  c #713602",
"J  c #7F3302",
"K  c #723A04",
"L  c #7F3900",
"P  c #732D1B",
"I  c #482824",
"U  c #5C2828",
"Y  c #532828",
"T  c #4B3535",
"R  c #573838",
"E  c #602D2D",
"W  c #623C3C",
"Q  c #794303",
"!  c #71440A",
"~  c #7D4711",
"^  c #51403C",
"/  c #564845",
"(  c #5B4945",
")  c #524745",
"_  c #505050",
"`  c gray27",
"'  c #684949",
"]  c #714949",
"[  c #6E5151",
"{  c #775757",
"}  c #7F5E5E",
"|  c #7A5555",
" . c #7E6363",
".. c #831C00",
"X. c #8A1C00",
"o. c #941D00",
"O. c #9A1F00",
"+. c #A21F00",
"@. c #852200",
"#. c #8C2200",
"$. c #87230B",
"%. c #922100",
"&. c #9D2100",
"*. c #962D00",
"=. c #9D2B03",
"-. c #96270B",
";. c #99280C",
":. c #853C01",
">. c #913803",
",. c #953000",
"<. c #812F1B",
"1. c #A12000",
"2. c #AB2400",
"3. c #A12800",
"4. c #AA2900",
"5. c #B32B00",
"6. c #BA2800",
"7. c #B62F08",
"8. c #AF370D",
"9. c #B43304",
"0. c #BB3303",
"q. c #BF3807",
"w. c #BE3509",
"e. c #C02800",
"r. c #C13606",
"t. c #C3350A",
"y. c #C4390B",
"u. c #CC3C0F",
"i. c #D33C0F",
"p. c #C43C13",
"a. c #CB3B10",
"s. c #D23F10",
"d. c #814703",
"f. c #844C04",
"g. c #844708",
"h. c #8B5408",
"j. c #975E06",
"k. c #A44E09",
"l. c #A75009",
"z. c #AA5209",
"x. c #9A630A",
"c. c #9F6915",
"v. c #A26C0B",
"b. c #AD730D",
"n. c #B0790D",
"m. c #B57E13",
"M. c #A77217",
"N. c #8E5D24",
"B. c #D9410F",
"V. c #D7410F",
"C. c #CA4414",
"Z. c #D24111",
"A. c #DD4515",
"S. c #D7451C",
"D. c #DC471A",
"F. c #E14114",
"G. c #E64315",
"H. c #E04818",
"J. c #E14919",
"K. c #E34B18",
"L. c #E24919",
"P. c #E74F18",
"I. c #E44C19",
"U. c #E64A19",
"Y. c #E94C1A",
"T. c #E85018",
"R. c #E85019",
"E. c #EA5219",
"W. c #ED511A",
"Q. c #F6501F",
"!. c #F2521C",
"~. c #FB521F",
"^. c #F75120",
"/. c #F95121",
"(. c #FF5221",
"). c #FF5422",
"_. c #826565",
"`. c #8A7575",
"'. c #8C7B7B",
"]. c #B8810F",
"[. c #BF8812",
"{. c #BB8827",
"}. c #C58D14",
"|. c #CB9316",
" X c #CC971D",
".X c #CE9B2C",
"XX c #D4AA53",
"oX c #D6AA4A",
"OX c #988F8F",
"+X c #948686",
/* pixels */
"      X ` _ _ _ _ _ _ _ _ _ _ _ _ _ _ _ _ _ _ _ _ _ _ _ _ _ y     y _ _ _ _ _ _ _ _ _ _ _ _ _ _ _ _ _ _ _ _ _ _ _ _ _ ` X       ",
"        % & & & & & & & & & & & & & & & & & & & & & & & & r *     * r & & & & & & & & & & & & & & & & & & & & & & & & %         ",
"    . > 7 6 7 +                                                                                                 + 7 6 7 > .     ",
"    $ U {  .] h .             . O + @ @ @ @ @ ; ; ; ; ; ; ; @ + + @ ; ; ; ; ; ; ; @ @ @ @ @ + O .             . h ]  .{ U $     ",
"    $ E '.OX_.h .           + d @.8.C.C.C.C.C.C.S.S.S.S.S.S.p.&.&.p.S.S.S.S.S.S.C.C.C.C.p.p.8.@.d +           . h _.OX'.E $     ",
"    > E _.`.| h .         < i l =.Z.Y.U.Y.W.W.W.!.~.(.(.(.).G.6.6.G.).(.(.(.~.!.W.W.W.Y.U.Y.Z.=.l i <         . h | `._.E >     ",
"    $ g R R Y 0 .       = n X.l *.y.A.H.H.K.P.T.T.W.Q./././.F.6.6.F./././.Q.W.T.T.P.H.H.H.A.y.*.l X.n =       . 0 Y R R g $     ",
"    . $ $ $ $ +       = n 7.=.l *.y.Z.A.H.H.H.P.T.T.W.Q././.F.6.6.F././.Q.W.T.T.P.H.H.H.A.Z.y.*.l =.7.n =       + $ $ $ $ .     ",
"                    = n 4.r.=.l *.y.Z.A.A.H.H.H.P.T.T.W.Q./.F.6.6.F./.Q.W.T.T.P.H.H.H.A.A.Z.y.*.l =.r.4.n =                     ",
"                  : l 1.5.r.=.l *.y.Z.Z.A.A.H.H.H.P.T.T.W.^.F.6.6.F.^.W.T.T.P.H.H.H.A.A.Z.Z.y.*.l =.r.5.&.l :                   ",
"    . +         - l 1.5.0.q.=.l *.q.u.Z.Z.A.A.H.H.H.P.T.T.!.A.6.6.A.!.T.T.P.H.H.H.A.A.Z.Z.Z.q.*.l =.q.0.5.1.l =         + .     ",
"    : z +     = v &.4.5.0.0.%.l *.9.y.a.Z.Z.A.A.H.H.H.P.T.T.V.6.6.B.T.T.P.H.H.H.A.A.Z.Z.a.y.9.*.l %.0.0.5.4.&.v =     + z :     ",
"    1 o.z + = v &.4.4.4.5.0.%.k %.9.y.a.a.Z.Z.Z.A.H.H.H.P.T.B.6.6.B.T.P.H.H.H.A.Z.Z.Z.a.a.y.9.%.k %.0.5.4.4.4.&.v = + z o.1     ",
"    1 &.o.v v O.4.4.4.4.4.0.%.k %.9.y.a.a.Z.Z.Z.Z.A.H.H.H.T.B.e.e.B.T.H.H.H.A.Z.Z.Z.Z.a.a.y.9.%.k %.0.4.4.4.4.2.O.v v o.&.1     ",
"    1 &.1.1.1.1.2.4.4.4.4.5.%.k %.9.y.a.a.a.Z.Z.C.Z.A.H.H.P.B.e.e.B.P.H.H.A.Z.C.Z.Z.a.a.a.y.9.#.k %.5.4.4.4.2.2.1.1.1.1.&.1     ",
"    1 &.1.1.1.1.1.2.4.4.4.4.X.k #.9.y.y.a.a.Z.Z.Z.Z.Z.A.H.H.i.6.6.i.H.H.A.Z.Z.Z.Z.Z.a.a.y.y.9.#.k X.4.4.4.4.2.1.1.1.1.1.&.1     ",
"    1 &.1.1.1.1.&.&.2.4.4.4.X.k #.4.0.y.y.a.a.Z.Z.Z.Z.Z.A.H.i.6.6.i.H.A.Z.Z.Z.Z.Z.a.a.y.y.0.4.X.k X.4.4.4.2.1.1.1.1.1.1.&.1     ",
"    1 &.1.1.1.1.&.&.1.2.4.4.X.k X.2.5.0.y.y.a.a.Z.Z.Z.Z.Z.A.a.2.2.a.A.Z.Z.Z.Z.Z.a.a.y.y.0.5.4.X.k X.4.4.2.1.1.1.1.1.1.1.&.1     ",
"    1 &.1.1.1.1.&.1.1.1.2.4.X.k X.2.5.5.0.t.y.y.a.a.a.Z.Z.A.u.1.+.a.A.Z.Z.a.a.a.y.y.t.0.5.5.2.X.k X.4.1.1.1.1.1.1.1.1.1.&.1     ",
"    1 &.1.1.1.1.1.1.1.1.1.2.X.k X.2.5.5.5.0.q.y.y.a.a.s.s.A.t.2.+.t.A.s.s.a.a.y.y.q.0.5.5.5.2.X.k X.2.1.1.1.1.1.1.1.1.1.&.1     ",
"    1 &.1.1.1.1.1.&.&.1.1.1.X.k ..1.5.5.5.5.0.y.y.y.a.a.a.s.t.2.2.t.s.a.a.a.y.y.y.0.5.5.5.5.1...k X.1.1.1.1.1.1.1.1.1.1.&.1     ",
"    1 &.1.1.1.1.1.1.1.1.1.1.X.k ..&.4.4.5.5.5.0.0.t.y.y.a.a.w.+.2.w.a.a.y.y.t.0.0.5.5.5.5.4.&...k X.1.1.1.1.1.1.1.1.1.1.&.1     ",
"    1 &.1.1.1.1.1.1.1.1.1.1.X.k ..&.4.4.4.4.5.5.5.0.0.0.y.y.7.O.&.7.y.y.0.0.0.5.5.5.4.4.4.4.&...k X.1.1.1.1.1.1.1.1.1.1.&.1     ",
"    1 1.1.1.1.1.1.1.1.1.1.1.X.k b &.4.2.4.4.5.5.5.5.5.0.0.y.4.X.#.4.y.0.0.5.5.5.5.5.4.4.2.4.&.b k X.1.1.1.1.1.1.1.1.1.1.1.1     ",
"    1 &.1.&.&.1.1.1.1.1.1.1.X.k b o.1.1.2.4.4.5.5.5.5.5.0.r.4.#.#.4.r.0.5.5.5.5.5.4.4.2.1.1.o.b k X.1.1.1.1.1.1.1.&.&.1.&.1     ",
"    O 1 1 < z 1.+.+.1.1.1.1.X.k b o.1.1.1.1.2.4.4.4.4.4.4.0.4.#.#.4.0.4.4.4.4.4.4.2.1.1.1.1.o.b k X.1.1.1.1.+.+.1.z < 1 1 O     ",
"            = l <.;.1.1.+.+.X.j b o.+.+.+.=.*.*.*.,.=.4.4.5.3.@.@.3.5.4.4.=.,.*.*.*.=.+.+.+.o.b j X.+.+.1.1.;.<.l =             ",
"              X y P X.X.-.;.$.c M $.-.-.-.J Q f.h.Q J %.%.1.=.S S =.1.%.%.J Q h.f.Q :.-.-.-.$.M c $.;.-.X.X.P y X               ",
"                X O O $ ^ ( / ) / ( ( ( ( V f. XoXN.4 O O n =.S S =.n O O 4 N.oX Xf.V ( ( ( ( / ) / ( ^ $ O O X                 ",
"    O 9 T T I 8         % w & & & & r t I B Q m.{.~ p :   = s S S s =   : p ~ {.m.Q B I t r & & & & w %         8 I T T 9 O     ",
"    > E _.`.| h .                   . 4 F Z Z d.d.Z Z F 2   - S S -   2 F Z Z d.d.Z Z F 4 .                   . h | `._.E >     ",
"    $ E '.OX_.h .                   ; F h.H f a a f H h.F @ : S S : @ F h.H f a a f H h.F ;                   . h _.OX'.E $     ",
"    $ U {  .] h .                   N v.f.Z 4 . . 4 Z f.v.q - S S - q v.f.Z 4 . . 4 Z f.v.N                   . h ]  .{ U $     ",
"    O 0 t I 9 ,                     C [.K 3 .     . 3 K }.g.d S S d g.}.K 3 .     . 3 K [.C                     , 9 I t 0 O     ",
"      O O O O .   O - : : : : = : - ! }.F 1 : < < : 1 Z }.z...S S ..z.}.Z 1 : < < : 1 F }.! - : = : : : : - O   . O O O O       ",
"              . O u v ......v k b b k.|.K A ..@.@...A K |.l.b S S b l.|.K A ..@.@...A K |.k.b b k v ......v u O .               ",
"            + s n ..X.X.X.%.b k b ..l.|.x.F x #.#.x F x.|.l.m S S m l.|.x.F x #.#.x F x.|.l...b k b %.X.X.X...n s +             ",
"    = d d d l X.%.&.&.&.&.&.X.k b X.>.v.[.x.H z z H x.[.v.>...S S ..>.v.[.x.H z z H x.[.v.>.X.b k X.&.&.&.&.&.%.X.l d d d =     ",
"    < %.%.&.&.&.1.1.1.1.1.1.X.k b o.#.:.b.n.c.N.N.M.].b.:.#.X.S S X.#.:.b.].M.N.N.c.n.b.:.#.o.b k X.1.1.1.1.1.1.&.&.&.%.%.<     ",
"    < %.%.&.1.1.1.1.1.1.1.1.X.k b o.&.#.L j.{.XXXX.Xb.L #.O.%.S S %.O.#.L b..XXXXX{.j.L #.&.o.b k X.1.1.1.1.1.1.+.+.&.%.%.<     ",
"    1 &.&.&.1.1.1.1.1.1.1.1.X.k b o.1.&.#.D F G G G D #.&.1.%.S S %.1.&.#.D G G G F D #.&.1.o.b k X.1.1.1.1.1.1.1.1.&.&.&.1     ",
"    1 1.1.1.1.1.1.1.1.1.1.1.X.k b o.1.1.O.X.........X.O.1.1.%.S S %.1.1.O.X.........X.O.1.1.o.b k X.1.1.1.1.1.1.1.1.1.1.1.1     ",
"    1 &.1.1.1.1.1.1.1.1.1.1.X.k b o.1.1.1.1.1.1.1.1.1.1.1.1.%.S S %.1.1.1.1.1.1.1.1.1.1.1.1.o.b k X.1.1.1.1.1.1.1.1.1.1.&.1     ",
"    1 &.1.1.1.1.1.1.1.1.1.1.X.k b o.1.1.1.1.1.1.1.1.1.1.1.1.%.S S %.1.1.1.1.1.1.1.1.1.1.1.1.o.b k X.1.1.1.1.1.1.1.1.1.1.&.1     ",
"    1 &.1.1.1.1.1.1.1.1.1.1.X.k b o.1.1.1.1.1.1.1.1.1.1.1.1.%.S S %.1.1.1.1.1.1.1.1.1.1.1.1.o.b k X.1.1.1.1.1.1.1.1.1.1.&.1     ",
"    1 &.1.1.1.1.1.1.1.1.1.1.X.k b o.1.1.1.1.1.1.1.1.1.1.1.1.%.S S %.1.1.1.1.1.1.1.1.1.1.1.1.o.b k X.1.1.1.1.1.1.1.1.1.1.&.1     ",
"    1 &.1.1.1.1.1.1.1.1.1.1.X.k b o.1.1.1.1.1.1.1.1.1.1.1.1.%.S S %.1.1.1.1.1.1.1.1.1.1.1.1.o.b k X.1.1.1.1.1.1.1.1.1.1.&.1     ",
"    1 &.1.1.1.1.1.1.1.1.1.1.X.k b o.1.1.1.1.1.1.1.1.1.1.1.1.%.S S %.1.1.1.1.1.1.1.1.1.1.1.1.o.b k X.1.1.1.1.1.1.1.1.1.1.&.1     ",
"    1 &.1.1.1.1.1.1.1.1.1.1.X.k b o.1.1.1.1.1.1.1.1.1.1.1.1.%.S S %.1.1.1.1.1.1.1.1.1.1.1.1.o.b k X.1.1.1.1.1.1.1.1.1.1.&.1     ",
"    1 &.1.1.1.1.1.1.1.1.1.1.X.k b o.1.1.1.1.1.1.1.1.1.1.1.1.%.S S %.1.1.1.1.1.1.1.1.1.1.1.1.o.b k X.1.1.1.1.1.1.1.1.1.1.&.1     ",
"    1 1.O.v v O.1.1.1.1.1.1.X.k b o.1.1.1.1.1.1.1.1.1.1.1.1.%.S S %.1.1.1.1.1.1.1.1.1.1.1.1.o.b k X.1.1.1.1.1.1.O.v v O.1.1     ",
"    1 &.v = = v o.1.1.1.1.1.X.k b o.1.1.1.1.1.1.1.1.1.1.1.1.%.S S %.1.1.1.1.1.1.1.1.1.1.1.1.o.b k X.1.1.1.1.1.o.v = = v &.1     ",
"    < v =     = v O.1.1.1.1.X.k b o.1.1.1.1.1.1.1.1.1.1.1.1.%.S S %.1.1.1.1.1.1.1.1.1.1.1.1.o.b k X.1.1.1.1.O.v =     = v <     ",
"    O =         - l O.1.1.1.X.k b o.1.1.1.1.1.1.1.1.1.1.1.1.%.S S %.1.1.1.1.1.1.1.1.1.1.1.1.o.b k X.1.1.1.O.l -         = O     ",
"                  : l O.1.1.X.k b o.1.1.1.1.1.1.1.1.1.1.1.1.%.S S %.1.1.1.1.1.1.1.1.1.1.1.1.o.b k X.1.1.O.l :                   ",
"      . # # X .     - v o.1.X.k b o.1.1.1.1.1.1.1.1.1.1.1.1.%.S S %.1.1.1.1.1.1.1.1.1.1.1.1.o.b k X.1.o.v -     . X # # .       ",
"    $ I ' [ W g .     = v O.X.k b o.1.1.1.1.1.1.1.1.1.1.1.1.%.S S %.1.1.1.1.1.1.1.1.1.1.1.1.o.b k X.O.v =     . g W [ ' I $     ",
"    > E `.+X} h .       - b o.k b o.1.1.1.1.1.1.1.1.1.1.1.1.%.S S %.1.1.1.1.1.1.1.1.1.1.1.1.o.b k o.b -       . h } +X`.E >     ",
"    $ E `.+X} h .         1 k k b O.1.1.1.1.1.+.+.+.+.+.+.+.o.n n o.+.+.+.+.+.+.+.1.1.1.1.1.O.b k k 1         . h } +X`.E $     ",
"    $ Y ' [ W g .           + i l ..X.X.X.X.#.-.-.-.-.-.-.;.m i i m ;.-.-.-.-.-.-.#.X.X.X.X...l i +           . g W [ ' Y $     ",
"    . , 5 5 5 >               . O O O O O O 6 ( ( ( ( ( ( ( t . . t ( ( ( ( ( ( ( 6 O O O O O O .               > 5 5 5 , .     ",
"      . . . . .                             o & w & & & & e *     * e & & & & w & o                             . . . . .       ",
"                                                                                                                                ",
"                                                                                                                                "
};
