/* XPM */
static char *_b477f9397e5469a85d20f3d08696406nZIFd1lTxa5aI9CK[] = {
/* columns rows colors chars-per-pixel */
"64 64 178 2 ",
"   c None",
".  c #5D1F00",
"X  c #790700",
"o  c #651100",
"O  c #6F1F00",
"+  c #7B1700",
"@  c #751C00",
"#  c #7A1C00",
"$  c #731500",
"%  c #5D2D00",
"&  c #5D3300",
"*  c #543D00",
"=  c #5B3B00",
"-  c #6C2300",
";  c #632D00",
":  c #6A2C00",
">  c #732300",
",  c #7A2302",
"<  c #623300",
"1  c #6D3504",
"2  c #753606",
"3  c #7C3C09",
"4  c #3C4D00",
"5  c #335000",
"6  c #3D5200",
"7  c #4E4600",
"8  c #434E00",
"9  c #4B4B00",
"0  c #514500",
"q  c #554C03",
"w  c #594703",
"e  c #465000",
"r  c #4B5202",
"t  c #545405",
"y  c #5B5507",
"u  c #595807",
"i  c #5E5608",
"p  c #5C5908",
"a  c #674B08",
"s  c #694D09",
"d  c #6A4106",
"f  c #714208",
"g  c #7E400B",
"h  c #774F0D",
"j  c #7A4F0E",
"k  c #605709",
"l  c #65580B",
"z  c #6C5B0E",
"x  c #715C0F",
"c  c #755C10",
"v  c #7D5E13",
"b  c #7E6214",
"n  c #8E0500",
"m  c #860D00",
"M  c #8C0A00",
"N  c #960000",
"B  c #990100",
"V  c #940D03",
"C  c #9D0B04",
"Z  c #831300",
"A  c #831F03",
"S  c #971A07",
"D  c #971A08",
"F  c #9A1B09",
"G  c #A20702",
"H  c #A30B02",
"J  c #A90C03",
"K  c #A20F08",
"L  c #A11007",
"P  c #A51109",
"I  c #AA130B",
"U  c #B31704",
"Y  c #B21904",
"T  c #BC1D06",
"R  c #B11C0F",
"E  c #862506",
"W  c #8C2307",
"Q  c #8F2208",
"!  c #8E2909",
"~  c #902308",
"^  c #8B3B0D",
"/  c #933A0F",
"(  c #A3280E",
")  c #A2270E",
"_  c #BA2006",
"`  c #B22011",
"'  c #B42C14",
"]  c #BC2D17",
"[  c #A03512",
"{  c #AC3414",
"}  c #B43316",
"|  c #BD3519",
" . c #B33F19",
".. c #C62908",
"X. c #CE3009",
"o. c #D3360A",
"O. c #D7390A",
"+. c #C52D19",
"@. c #C13019",
"#. c #C7391D",
"$. c #CC3E20",
"%. c #9F4F18",
"&. c #9E4C17",
"*. c #8A5514",
"=. c #815E14",
"-. c #8F5D18",
";. c #875814",
":. c #955D19",
">. c #AC4419",
",. c #A44E19",
"<. c #B14119",
"1. c #A3501A",
"2. c #846116",
"3. c #896117",
"4. c #8C6319",
"5. c #94641B",
"6. c #9B661D",
"7. c #9C6A1F",
"8. c #A0671F",
"9. c #B35F22",
"0. c #A56921",
"q. c #AB6B23",
"w. c #B46223",
"e. c #B46D26",
"r. c #B86E27",
"t. c #BC6E29",
"y. c #B67229",
"u. c #BD712A",
"i. c #E4460D",
"p. c #C44C22",
"a. c #C84D23",
"s. c #D44C26",
"d. c #D74725",
"f. c #C55123",
"g. c #D05126",
"h. c #D65428",
"j. c #DB532A",
"k. c #D45B2A",
"l. c #DB5B2C",
"z. c #E0542B",
"x. c #C76429",
"c. c #CF652C",
"v. c #C56D2B",
"b. c #DA682F",
"n. c #C3712B",
"m. c #CD732F",
"M. c #DB6A30",
"N. c #D37531",
"B. c #DA7633",
"V. c #DB7935",
"C. c #EB6333",
"Z. c #EE6D36",
"A. c #E66C33",
"S. c #F16F37",
"D. c #F46F39",
"F. c #F86938",
"G. c #ED7237",
"H. c #E57937",
"J. c #ED7538",
"K. c #E77B38",
"L. c #EA7B39",
"P. c #F07037",
"I. c #F37339",
"U. c #FB733C",
"Y. c #F47D3C",
"T. c #FB7F3E",
"R. c #FE7F40",
"E. c #F4813D",
"W. c #FC803F",
"Q. c #FF8242",
"!. c #FF8040",
"~. c #FF8442",
"^. c #FF8643",
"/. c #FF8745",
"(. c #FF8645",
"). c #FF8142",
"_. c #FF8847",
"`. c #FF8A49",
/* pixels */
"                                                                                                        !.!.!.!.!.!.!.!.!.!.!.!.",
"                                                                                                        !.!.!.!.!.!.!.!.!.!.!.!.",
"                                                                                                        !.!.!.!.!.!.!.!.!.!.!.!.",
"                                                                                                        ~.~.!.!.!.!.!.!.!.!.!.!.",
"                                                  N N N N N N N N N N N N N N                           (.~.~.!.!.!.!.!.!.!.!.!.",
"                                                N N N N N N N N N N N N N N N N                         T.R.R.!.!.!.!.!.!.!.!.!.",
"                                                N N N N N N N N N N N N N N N N                         C.Z.I.U.T.T.!.!.!.!.!.!.",
"                                              B B B B B B B N N N N N N N N N N N                     ] $.s.z.C.D.T.!.!.!.!.!.!.",
"                                          B B B B B B B B B B N N N N N N N N N N B B N N N N N N N C P R ] #.s.C.U.!.(.~.!.!.!.",
"                                        N N N N N N N N N N N N N N N N N N N N N N N N N N N N N N B B C L ` #.l.I.T.~.!.!.!.!.",
"                                        M M M M M M M M M M M V C L P P P P L C V M M V C L K H C B N n n M D { f.M.H.L.L.K.H.H.",
"                                        @ @ @ @ @ # # @ @ @ # Q ( ' ] @.@.] ' ) Q A A ~ ( ' ' ` I B n X X $ , ^ 1.w.t.u.u.t.t.t.",
"                                        % & & < < < < & & & 1 ^ >.a.j.z.z.j.a.>.^ 2 2 ^ >.a.s.d.+.    o . % < d h =.3.4.4.4.3.3.",
"                                        0 0 0 0 0 0 0 7 7 0 a *.w.M.S.U.U.S.M.9.*.a a *.9.b.Z.F.        * 0 0 q y y i i i i i i ",
"                                        i i y t r r r r t i c 6.n.L.R.!.!.R.H.e.=.i k 2.r.H.R.(.        l k i t r r e e e e e e ",
"                                      x b 2.b z p r r u z 2.7.u.B.E.~.(.(.~.K.y.b p p 2.u.L.(._.`.    y.7.4.b z t e 4 4 4 4 4 8 ",
"                                  e i b 7.q.q.4.z t t z 4.q.m.V.L.W.~.(.(.!.K.e.b u p 2.u.L.(._._.~.E.H.N.u.q.4.l r 4 4 4 8 8 8 ",
"                                4 e i 3.e.N.m.q.=.i i c 0.m.K.Y.T.W.!.!.!.!.H.e.2.k k 2.e.H.!.!.!.!.W.T.Y.L.N.0.=.i e 8 8 e e e ",
"                                4 e k 4.t.H.H.t.3.k y c 0.m.K.Y.T.T.!.!.!.!.L.n.5.c x 4.e.N.L.Y.T.T.!.!.!.!.L.n.6.c i t r r e e ",
"                                4 e k 4.n.L.L.n.4.i t l 3.q.n.B.L.T.!.!.!.!.Y.B.r.6.5.6.0.e.n.B.L.T.!.(.(.(.T.V.t.6.2.z i r e 8 ",
"                                4 e k 4.n.L.L.n.4.i r t l v 6.e.N.L.!.!.!.!.T.L.V.m.t.0.6.5.6.e.N.Y.!.(.(.(.!.Y.H.m.e.4.z t e 4 ",
"                                4 e k 4.t.H.H.n.4.k r e r i c 6.n.L.!.!.!.!.T.T.Y.L.N.q.3.x c 5.n.L.W.!.!.!.T.T.Y.K.m.0.v y e 4 ",
"                                4 e i 2.q.m.N.t.5.x k t t k c 6.n.L.T.T.Y.L.H.L.L.H.m.0.c i i c 0.m.H.L.L.K.K.L.L.H.N.q.2.i e 4 ",
"                                8 e t x 4.0.e.q.8.5.4.2.=.2.5.e.N.L.Y.L.N.n.t.t.t.t.0.4.l r r l 2.0.e.t.t.t.t.t.n.t.e.6.v i e 4 ",
"                                8 e r i z v 4.6.q.e.t.t.r.r.n.N.L.Y.L.N.e.5.2.2.2.2.v l t e e t l c 2.3.3.3.4.4.4.4.3.=.x       ",
"                                e e r r t i x 5.e.N.H.L.L.H.L.Y.T.T.L.n.6.c k y i k i t r r r r t i k k k i i i k k i i         ",
"                                e e e 8 8 r k 3.t.H.!.!.!.!.!.!.!.!.L.n.6.c k y i k k k k k k k k k i t t r e e e e e e         ",
"                                  e 8 4 4 4 y 2.n.Y.(.(.(.(.(.(.(.!.Y.N.e.6.3.2.2.3.3.4.3.4.4.4.4.3.v z y r 8 4 4 4 4           ",
"                                                      _.(.(.(.(.(.!.T.L.N.n.t.t.t.t.t.u.u.u.u.n.n.t.0.4.z t 8 4 4               ",
"                                                        !.!.!.!.!.!.T.Y.L.L.H.H.H.H.H.H.H.H.H.L.L.H.m.0.v y e 4                 ",
"                                                        A.Z.P.G.J.H.H.H.H.H.H.H.H.H.H.J.G.G.G.I.J.H.N.q.2.i e 4                 ",
"                                                      &.p.s.h.k.x.t.u.u.u.n.n.n.n.n.v.c.l.j.j.l.c.v.e.7.b i e                   ",
"                  e e e e e e e e e e e e e e 6 6 8 w 3 [ ' } >.%.-.3.3.3.4.4.4.4.4.:.,. .| | <.1.:.3.b z                       ",
"                e e e e e e e e e e e e e e e e e 8 0 1 E D D ! 3 s k p p i i p p k s 3 ! F F ! 3 s k p                         ",
"                e e e e e e e e e e e e e e e e e e 0 < > Z Z # : = 0 9 9 9 e e e e 0 < > Z Z # : = 0 7                         ",
"              8 8 e e e e e e e e e e e e e e e e e 7 * ; - @ O - ; & * 7 8 6 6 6 6 8 * ; - @ - : ; & &                         ",
"          4 4 8 8 e e e e e e e e e e e e e e e e e 9 7 * & ; - - @ - ; * 8 6 6 6 6 8 7 * & ; : - @ @ @                   e e e ",
"        r e e e e e e e e e e e e e e e e e e e e e 8 9 9 7 = : # Z Z > < 7 8 e e e 8 9 9 0 = ; @ Z M n                 e e e e ",
"        z k y t r r e e e e e e e e e e e e e e e e e e e e 0 < # M M # : = 0 7 7 0 0 7 7 0 = : # M N B                 e e e e ",
"      t.8.4.v z y r 8 8 e e e e e e e e e e e e e e e e 6 e 7 < # M N m @ : < < < < < < & < ; @ Z n N B                 e e e e ",
"!.!.Y.H.N.t.0.4.z t 8 4 6 e e e e e e e e e e e e e e e 6 e 7 < # M N n m + @ @ @ # # @ > @ # Z M N N N                 e e e e ",
"!.!.T.T.Y.L.N.0.=.i r 8 8 8 e e e e e e e e e e e e e e e 8 0 < # M N N N M M M M M M M M M M n N N N B                 e e e e ",
"!.!.!.!.!.W.L.n.6.c i q q 0 0 0 0 0 7 7 9 8 8 9 7 7 0 7 7 0 = : # M B B G H H C B B N N N N B B C H J J                 e e e e ",
"!.!.!.!.!.!.Y.B.t.6.;.j f 1 < ; ; < & * 7 9 9 7 0 & < < < < : @ Z n B J U T T U J B B N N B B J U _ _ _ U             e e e e e ",
"!.!.!.!.!.!.T.L.B.n.w.1./ E # + # # > < 0 9 9 0 < > # # # # # Z M N H U ..o.o...U G B N N B G U ..o.O.X.T J M @ < 0 e e e e e e ",
"!.!.!.!.!.!.W.W.E.L.M.f.{ S M n n M Z > = 0 0 = > Z M M M M M n n N H _ o.i.i.o._ H N N N N H _ o.i.i.O._ J M @ < 0 e e e e e e ",
"!.!.!.!.!.!.!.!.~.R.Z.g.} D M n N N M # : = = : # M N B N N N N N N H _ o.i.i.o._ H N N N N H _ o.i.i.o.T H M @ < 0 e e e e e e ",
"!.!.!.!.!.!.!.(.(.(.D.f.[ W Z m n N N Z @ : : > Z N B B B B B N N N H Y ..o.o...Y C N N N N H Y ..o.o...U C M @ < 0 e e e e e e ",
"      !.!.!.!.(._.    1.g 1 : @ m N N n Z # # Z M N B B B B B N N N B J Y _ _ Y J B N N N N B J Y _ _ U J B M @ < 0 e e e e e e ",
"        !.!.!.!.        q 0 = : # M N N N M M n N N N N N N N N N N B B H H H H B B N N N N B B H H H H B B M # < 0 e e e e e e ",
"        !.!.T.T.        6 8 0 = > Z M N N N N N N N N N N N N N N N N N N N N N N N N N N N N N N N N B B N M # < 0 e e e e e e ",
"          !.Y.B.      5 6 e 9 0 < > # Z M N B B B N N N N N N N N N N N N N N N N N N N N N N N N N N N N N M # < 0 e e e e e e ",
"                c r 8 6 6 e 8 7 0 = : > Z N B B B N N N N N N N N N N N N N N N N N N N N N N N N N N N B N M # < 0 e e e e e e ",
"                t r e e e e 8 9 9 0 = : # M N B B N N N N N N N N N N N N N N N N N N N N N N N N N N B B N M # < 0 e e e e e e ",
"                e e e e e e 8 9 9 0 = : # M N B B N N N N N N N N N N N N N N N N N N N N N N N N N N B B N M # < 0 e e e e e e ",
"              4 8 e e e e e 9 7 0 = : > Z n N B N N N N N N N N N N N N N N N N N N N N N N N N N N N B B N M # < 0 e e e e e e ",
"          4 8 8 8 e e e e e 7 * < > # Z M N N N N N N N N N N N N N N N N N N N N N N N N                                       ",
"        e e e e e e e e e e 7 & > Z M N N N N N N N N N N N N N N N N N N N N N N N N N                                         ",
"        e e e e e e e e e e 0 < # M N B B N N N N N N N N N N N N N N N N N N N N N N N                                         ",
"        e e e e e e e e e e 0 < # n B B B N N N N N N N N N N N N N N N N N N N N N N                                           ",
"        e e e e e e e e e             B B N N N N N N N N N N N N                                                               ",
"        e e e e e e e e                 N N N N N N N N N N N N                                                                 ",
"        e e e e e e e e                 N N N N N N N N N N N N                                                                 ",
"        e e e e e e e e                 N N N N N N N N N N N N                                                                 "
};
