/* XPM */
static char *d8f6d3005dd9496e84c3009ae8826892GHRb8qwXnn5OwskZ[] = {
/* columns rows colors chars-per-pixel */
"64 64 181 2 ",
"   c #060202",
".  c #090303",
"X  c #0E0A05",
"o  c #070708",
"O  c #080309",
"+  c #0E0909",
"@  c #130605",
"#  c #190604",
"$  c #120906",
"%  c #1A0B06",
"&  c #130708",
"*  c #180708",
"=  c #130B0A",
"-  c #1C0D0A",
";  c #161107",
":  c #1B1105",
">  c #151109",
",  c #1E110B",
"<  c #1C1310",
"1  c #210E0A",
"2  c #290C0C",
"3  c #26130C",
"4  c #2B140C",
"5  c #251412",
"6  c #2F1A10",
"7  c #361F16",
"8  c #6B4737",
"9  c #66453B",
"0  c #644A3E",
"q  c #6F4F3B",
"w  c #7B4431",
"e  c #784B35",
"r  c #764E3D",
"t  c #794E3B",
"y  c #76513C",
"u  c #7A513D",
"i  c #694E42",
"p  c #704643",
"a  c #6F5046",
"s  c #775442",
"d  c #7D5342",
"f  c #7E5941",
"g  c #7E564B",
"h  c #895835",
"j  c #84573C",
"k  c #8B573E",
"l  c #8E5A3E",
"z  c #915937",
"x  c #97573E",
"c  c #925B3D",
"v  c #985E3E",
"b  c #93623E",
"n  c #99633E",
"m  c #98683E",
"M  c #824E42",
"N  c #835443",
"B  c #8C5741",
"V  c #845A43",
"C  c #8E5A40",
"Z  c #885349",
"A  c #845949",
"S  c #935742",
"D  c #925B41",
"F  c #946241",
"G  c #996144",
"H  c #976942",
"J  c #8C775D",
"K  c #967655",
"L  c #9C7757",
"P  c #937955",
"I  c #9F7953",
"U  c #93735A",
"Y  c #94795D",
"T  c #9F785A",
"R  c #A47D5C",
"E  c #AC7E5E",
"W  c #B37F5E",
"Q  c #937964",
"!  c #A47D60",
"~  c #A27C69",
"^  c #B27D61",
"/  c #9F825E",
"(  c #AE8254",
")  c #A5825D",
"_  c #AB825D",
"`  c #AC895E",
"'  c #B18755",
"]  c #B4855D",
"[  c #BA875E",
"{  c #BC8C5C",
"}  c #BF8C5C",
"|  c #BC8C5F",
" . c #BF8E5F",
".. c #BC8D5D",
"X. c #BC905A",
"o. c #BF905B",
"O. c #BC915C",
"+. c #BD905C",
"@. c #BD935D",
"#. c #BF905E",
"$. c #BD935E",
"%. c #BE935F",
"&. c #BD945C",
"*. c #BE925D",
"=. c #A58060",
"-. c #A58063",
";. c #A68362",
":. c #A88460",
">. c #AC8362",
",. c #A68864",
"<. c #AD8864",
"1. c #B28564",
"2. c #B28A65",
"3. c #BD8B60",
"4. c #BB8D61",
"5. c #BB8D63",
"6. c #BC8D61",
"7. c #BE8C60",
"8. c #BF8F60",
"9. c #BF8E61",
"0. c #BF8F61",
"q. c #BE8E60",
"w. c #BD8E63",
"e. c #BF8E62",
"r. c #BF8F62",
"t. c #BE8E63",
"y. c #BB8A65",
"u. c #BD8B64",
"i. c #BE8D64",
"p. c #BF8F65",
"a. c #BF8E67",
"s. c #BC8C62",
"d. c #B38B6A",
"f. c #BF8B68",
"g. c #BB8C69",
"h. c #BF9060",
"j. c #BF9061",
"k. c #BE9060",
"l. c #BD9261",
"z. c #BE9361",
"x. c #BF9062",
"c. c #BF9162",
"v. c #BE9263",
"b. c #BE9264",
"n. c #BF9061",
"m. c #BD916A",
"M. c #B69373",
"N. c #C18F5B",
"B. c #C18F5A",
"V. c #C18E5E",
"C. c #C0905B",
"Z. c #C2935D",
"A. c #C08F60",
"S. c #C08F61",
"D. c #C08F62",
"F. c #C18F65",
"G. c #C38C66",
"H. c #C28E62",
"J. c #C28E68",
"K. c #C19061",
"L. c #C09161",
"P. c #C19061",
"I. c #C29061",
"U. c #C09163",
"Y. c #C09063",
"T. c #C29062",
"R. c #C29063",
"E. c #C29163",
"W. c #C59362",
"Q. c #C69462",
"!. c #C19064",
"~. c #C29064",
"^. c #C29165",
"/. c #C29362",
"(. c #C89265",
"). c #C99365",
"_. c #C99563",
"`. c #C29963",
"'. c #C2906B",
"]. c #C3936B",
"[. c #C5936A",
/* pixels */
"7.7.D.Y.Y.Y.Y.h.h.h.h.h.h.h.h.h.h.h.h.h.h.h.h.#.#.#.h.h.h.h.#.#.h.h.h.#.#.#.h.h.h.7.(._ @     - _ x.#.#.h.D.D.D.D.| W.) $ . . . ",
"7.7.Y.~.~.Y.Y.h.h.h.h.h.h.h.h.h.h.h.7.7.h.h.#.#.#.#.h.h.h.h.h.#.h.h.h.#.#.#.h.h.h.p.(._ @     - _ x.#.#.h.D.D.D.D.| W.) $ . . . ",
"7.Y.~.~.~.~.Y.Y.Y.Y.Y.~.Y.Y.Y.Y.Y.Y.Y.Y.Y.Y.Y.Y.Y.Y.Y.Y.Y.Y.Y.Y.Y.Y.Y.Y.Y.Y.Y.Y.h.p.(.:.@     - _ x.#.#.Y.H.H.Y.Y.7.W.=.$   . . ",
"Y.Y.~.p.7.5.7.| | | | | | | | | | | | } | | | | | | | | | | | | | | | | | | | | | y.H.=.$ .   - _ x.o.#.7.u.u.3.3.3.J.! =   . . ",
"Y.~.~.7.H b F F F F F F F F F F F F F F F F F F F F F F F F F F F F F F F F F F F F G d @ .   , _ h.o.{ m F F F F F G f $     . ",
"Y.Y.~.5.b j k k l B B B B B B B B B B B B B B B B B B B B B B B B B B B B B B B B l z y @ .   , _ h.o.{ b l l l l k c y $   . . ",
"Y.Y.Y.5.F k l l l l C l l l C C C D D c D D C C C C C C C C l l C C C C C C C l C l c s @ .   , _ h.o.{ b C D C C C D y $   . . ",
"h.h.h.| b l C C C C C l l l C C C C C C C C C C C C C C C C l l C C C C C C C C C l c d @ .   - _ #.o.{ b l l C C C D y $   . . ",
"h.h.#.{ F B C C C C C l l l C C C C C C C C C C C C C C C C C C C C C C C C C C C l c d @ .   - _ #.C.{ F C l C C C D y $   . . ",
"h.h.#.{ F B C C C C C l C C C C C C C C C C C C C C C C C C C C C C C C C C C C C l c d X .   - _ #.N.{ F C l C C C D y $   . . ",
"7.7.7.{ b B C C C C C C C C C C C C C C C C C C C C C C C C C C C C C C C C C C C l c d X .   - _ &.C.| F C l C C C D y $   . . ",
"7.7.7.{ b B l l l C C C C C C C C C C C C C C C C C C C C C C C C C C C C C C C C l c d X .   - _ &.C.| F C l C C C D y $     . ",
"7.7.7.{ F C l l l C C C C C C C C C C C C C C C C C C C C C C C C C C C C C C C C l c d X .   - _ &.N.{ F C l C C C D y $   . . ",
"7.7.7.{ F B l l l C C C C C C C C C C C C C C C C C C C C C C C C C C C C C C C C l c d X .   - _ h.7.3.F C l l l k l y $   . . ",
"7.h.7.{ b B C C C C C C C C C C C C C C C C C C C C C C C C C C C C C C C C C C C l c d X .   - ] ].].f.F c c c l l v s $   . . ",
"h.7.h.{ F B C C C C C C C C C C C C C C C C C C C C C C C C C C C C C C C C C C C l c d X .   - L <.<.>.j u u u u u Z p @ . . . ",
"h.#.#.{ F B C C C C C C C C C C C C C C C C C C C C C C C C C C C C C C C C C C C l c d X   . . - , , - % - % % % = - = . . . . ",
"h.h.h.{ F B C C C C C C C C C C C C C C C C C C C C C C C C C C C C C C C C C C C l c d X   . .           . .       O O   . . . ",
"h.h.h.{ F B C C C C C C C C C C C C C C C C C C C C C C C C C C C C C C C C C C C l c d X               . o o     . . . . . . . ",
"h.h.h.{ F B C C C C C C C C C C C C C C C C C C C C C C C C C C C C C C C C C C C l c d X   . . X @ @ & & $ & & & & $ X . . . . ",
"h.h.h.{ F B C C C C C C C C C C C C C C C C C C C C C C C C C C C C C C C C C C C l c d X . . - Y ,.=.;.;.;.;.=.;.=.,.J =   . . ",
"h.h.h.{ F B C C C C C C C C C C C C C C C C C C C C C C C C C C C C C C C C C C C l c d X .   - :.`.W.(.W.Y.Y.Y.Y.Y._.) >   . . ",
"h.h.h.{ F B C C C C C C C C C C C C C C C C C C C C C C C C C C C C C C C C C C C l c d X .   - =.&.| D.Y.Y.Y.h.h.| W.) =   . . ",
"h.h.h.{ F B C C C C C C C C C C C C C C C C C C C C C C C C C C C C C C C C C C C l c d X .   - ;.&.V.D.3.5.5.| | | D.R =   . . ",
"h.h.h.{ F B C C C C C C C C C C C C C C C C C C C C C C C C C C C C C C C C C C C l c d X .   - ;.#.V.V.H C b D D D G d $   . . ",
"h.h.h.{ F B C C C C C C C C C C C C C C C C C C C C C C C C C C C C C C C C C C C l c d X .   - _ #.V.V.F k l C C C D y @   . . ",
"h.h.h.{ F B C C C C C C C C C C C C C C C C C C C C C C C C C C C C C C C C C C C l c d X .   - _ #.V.V.D B l C D D D s & . . . ",
"h.h.h.{ F B C C C C C C C C C C C C C C C C C C C C C C C C C C C C C C C C C C C l c d X .   , _ &.N.V.D B l C C C D s =   . . ",
"h.h.h.{ F B C C C C C C C C C C C C C C C C C C C C C C C C C C C C C C C C C C C l c d X .   , ) &.C.D.D B l C D C D s =   . . ",
"h.h.h.{ F B C C C C C C C C C C C C C C C C C C C C C C C C C C C C C C C C C C C l c d @ .   , ) &.o.D.D B C D D D D s =   . . ",
"h.h.h.{ F B C C C C C C C C C C C C C C C C C C C C C C C C C C C C C C C C l l D c D d .     - _ &.Z.H.D C l l l C D y =   . . ",
"h.h.h.{ F B C C C C C C C C C C C C C C C C C C C C C C C C C C C C C C C D l l V N A a - % * 4 ( x.7.1.C l l l l l x y $   . . ",
"h.h.h.{ F B C C C C C C C C C C C C C C C C C C C C C C C C C C C C C C C C D j 1 @ @ - Y g.2.1.F b c l l l l l l l S y @     . ",
"h.h.h.{ F B C C C C C C C C C C C C C C C C C C C C C C C C C C C C C C C C D N +     $ ) W.~.y.F l C l l l l l l l S y & .   . ",
"h.h.Y.| F B C C C C C C C C C C C C C C C C C C C C C C C C C C C C C C C l x N =     $ ) Y.h.3.F C D c l l l l l l S y & .   . ",
"h.h.Y.| F B C C C C C C C C C C C C C C C C C C C C C C C C C C C C C C C l x N $ .   $ ) /.h.| F C C c c l l l l l S y & .   . ",
"h.h.h.| F B C C C C C C C C C C C C C C C C C C C C C C C C C C C C C C C l x N $     $ ) W.Y.3.F C C c c c c C C C S y & .   . ",
"V.V.D.} F B l l c C C C C C C C C C C C C C C C C C C C C C C C C C C l k k c N =     = ) (.~.3.D C C l c D C C C C S y & .   . ",
"Y.Y.~.#.H k C C C l C C C C C C C C C C C C C C C C C C C C C C C C l l D c x Z +     X ;._.Y.3.D C C l l C C C C C S y & .     ",
"_ _ _ _ V d d g A l l C C C C C C C C C C C C C C C C C C C C C C l c B Z N N M 5 = - 5 ! V.| ] D l C l l D C C C C S y & .     ",
"- - - - $ * & 1 d c l C C C C C C C C C C C C C C C C C C C l l l l c u 1 = $ 3 I <.:._ F D D D C l C l l D C C C C S y & .     ",
"              @ N x l B C l l c c l C C C C C C C C C C C C l l l l l y +     % ] (.H.| F C C C l C l l l C C C C C S y & .   . ",
"  . . . . .   @ d C l c D D S S S D C C C C C C C C C C C C D c c c D u +     % _ H.H.3.F C D C l l c l l C C l l l S y & .   . ",
"$ $ $ $ $ % $ : q s s d d d d N B C C C C C C C C C C C C C C V d d f q , = X 3 E D.D.3.D k C l l l l l l C l l l l S y @ . . . ",
") ) ) ) ) ) ) P 1 . @ @ @ @ . - d F D D D C C C C C C C C C C V - @ @ % U -./ R F F F v l C l l l l l l l C l l c l D y $   . . ",
"Y.Y.Y.W.W.Y.W.2.-   . . . .   X 8 t e w B C C C C C C C C C D A &     % _ ].W.| D B C l l l l l l l C C C C l c c c D y X   . . ",
"| | | | h.7.Y.` =   . .         . . @ # d D D D D D D D D D D B @     & R m.x.3.D C C C l l l l l l C C C C l c c l D y X   . . ",
"| | | | { 3.7._ 6 % 1 - - - - -       X i d d d d d d d d d N s 3 % % 4 R g.3.] D l C C l l l l l l C C C C l c c l D y X   . . ",
"| #.h.{ m b F F E ( _ _ _ _ _ K $     . > = = = = = = = = = = , R ' ( _ F l c c l C C l l l C C C C C C C C l l l l D y $   . . ",
"| #.#.| b h k D y././././.b.`.1.7 - < , . . . . . . . . . .   % d././.p.F l l l l l l C C l C C C C C C C C l l l l D y $   . . ",
"#.#.#.7.b k C D y.h.#.#.&.b.m.Y.m.2.M.~ #   . . . . . . . . . % <.h.#.3.F l D c c l l C C C C C C C C C C C l l l l D y $   . . ",
"#.#.h.7.H k B F y.p.5.O.O.l.p.V.| | Y.^ 2 + = = = = = & . . . - 1.h.#.5.F l l D D C C C C C C C C C C C C C l l l l D y $   . . ",
"| | 7.7.H k C l F F F F F F b m 5.Y.o.V._ >.>.>.>.>.1.U =     - 2.h.#.{ H l l C D C C C C C C C C C C C C C l l l l D y $   . . ",
"| | 7.7.H k C l l l C C C C l c W 3.] { Z.Z.Y.Y.Y.Z.W.) >     - 2.x.#.| F l l C C C C C C l c c C C C C C C l l l l D y $   . . ",
"7.7.7.7.H k C l l l l l C C C C D D D H #.h.h.h.h.| ~.) $     % <.h.#.} F l l C C C C C C l c c C C C C C C C l l l D y $   . . ",
"7.7.7.7.b k C l l l l l l l l l l l l F y.3.[ [ [ [ H.T =     % <.#.#.} F l l C C C C C l l D D D D C C C C C C C C S s & . . . ",
"7.7.7.7.b k C l c c l l l l l c c l l l c l c c c c v u X .   % <.#.h.3.F k B C C C C C l l c c D D C C C C C C C C D s & . . . ",
"7.7.7.7.b k C l c c l l l l l c l l l l l l C C B k D u @ .   % <.#.| 3.F k B C C C C C l l l l C C C C B C C C C l D y $   . . ",
"W.(.[.G.n c D D D D D D D D D D D D D S S S S D D D D N @   . % d.(.Z.V.n c c x S S S x x x x x x x S S S S x x x x D s $   . . ",
"R R ! ! u e y r r r r r r r r r r r r t t t t e y y s 9 .     $ Q =.) R f e e t y y y y y y y y t t y y y y u u u u s 0 =   . . ",
"- - - - $ $ $ $ $ $ $ $ $ $ $ $ $ $ $ & & @ @ $ $ X X X       . = = ; > = + $ $ = X X X X X X X X X X X X X X X X $ # & .   . . ",
". . . . . . . . . . . . . . . . . . . . . . . . .                               .                                   . .     . . ",
"    . . . . . .         . . . . . .         . . . . . . . . . . . . . . . . . . . . . . . . . . . . . . . . . . . . . . . . . . ",
". . . . . . . .         . . . . . .   .     . . . . . . . . . . . . . . . . . . . . . . . . . . . . . . . . . . . . . . . . . . "
};
